            <svg
              id="Layer_1"
              data-name="Layer 1"
              xmlns="http://www.w3.org/2000/svg"
              viewBox="0 0 100.2 77.1"
            >
              <title>Convert</title>
              <path
                d="M7.4,20.9H85.5c.3,0,.5-.7.5-1.6V15.2c0-.9-.2-1.6-.5-1.6H7.4c-.3,0-.5.7-.5,1.6v4.1C7,20.2,7.2,20.9,7.4,20.9Z"
                transform="translate(0 -0.2)"
                style="fill: #b48343"
              />
              <polygon
                points="67.2 0 100.2 17 67.2 34.1 71.4 17 67.2 0"
                style="fill: #5d5e61"
              />
              <path
                d="M74.6,20.9a8,8,0,0,0,3.3-.8l4.4-2.2a.75.75,0,0,0,0-1.2l-4.4-2.2a8,8,0,0,0-3.3-.8H63.3v7.4H74.6Z"
                transform="translate(0 -0.2)"
                style="fill: #747678"
              />
              <rect
                x="55.35"
                y="13.34"
                width="2.6"
                height="7.4"
                style="fill: #fbc926"
              />
              <rect
                x="57.99"
                y="13.34"
                width="2.6"
                height="7.4"
                style="fill: #942923"
              />
              <rect
                x="60.53"
                y="13.34"
                width="2.6"
                height="7.4"
                style="fill: #fbc926"
              />
              <rect
                x="7.15"
                y="13.47"
                width="31.3"
                height="7.4"
                style="fill: #942923"
              />
              <rect
                x="38.4"
                y="13.47"
                width="1.6"
                height="7.4"
                style="fill: #fbc926"
              />
              <polygon
                points="37.6 19.3 28.8 33.9 0 33.9 8.8 19.3 37.6 19.3"
                style="fill: #fbc926"
              />
              <polygon
                points="37.6 14.7 28.8 0.1 0 0.1 8.8 14.7 37.6 14.7"
                style="fill: #fbc926"
              />
              <path
                d="M92.8,63.9H14.6c-.3,0-.5-.7-.5-1.6V58.2c0-.9.2-1.6.5-1.6H92.7c.3,0,.5.7.5,1.6v4.1C93.2,63.2,93,63.9,92.8,63.9Z"
                transform="translate(0 -0.2)"
                style="fill: #b48343"
              />
              <polygon
                points="33 43 0 60 33 77.1 28.8 60 33 43"
                style="fill: #5d5e61"
              />
              <path
                d="M25.6,63.9a8,8,0,0,1-3.3-.8l-4.4-2.2a.75.75,0,0,1,0-1.2l4.4-2.2a8,8,0,0,1,3.3-.8H36.9v7.4H25.6Z"
                transform="translate(0 -0.2)"
                style="fill: #747678"
              />
              <rect
                x="42.2"
                y="56.3"
                width="2.6"
                height="7.4"
                style="fill: #fbc926"
              />
              <rect
                x="39.6"
                y="56.3"
                width="2.6"
                height="7.4"
                style="fill: #942923"
              />
              <rect
                x="37"
                y="56.3"
                width="2.6"
                height="7.4"
                style="fill: #fbc926"
              />
              <rect
                x="61.8"
                y="56.5"
                width="31.3"
                height="7.4"
                style="fill: #942923"
              />
              <rect
                x="60.2"
                y="56.5"
                width="1.6"
                height="7.4"
                style="fill: #fbc926"
              />
              <polygon
                points="62.6 62.3 71.4 76.9 100.2 76.9 91.3 62.3 62.6 62.3"
                style="fill: #fbc926"
              />
              <polygon
                points="62.6 57.7 71.4 43.1 100.2 43.1 91.3 57.7 62.6 57.7"
                style="fill: #fbc926"
              />
            </svg>