            <svg
              id="Layer_1"
              data-name="Layer 1"
              xmlns="http://www.w3.org/2000/svg"
              viewBox="0 0 409.64 361.23"
            >
              <title>Copy to clipboard</title>
              <path
                d="M828,617.76c-5.15-1-6.39-2.56-6.42-8.29-.22-43.46-.1-86.92-.78-130.37-.33-20.59-2.16-41.17-3.34-62.2h-5.37q-23.19,0-46.39,0c-5.71,0-7.11-1.16-8.32-6.89-2.06-9.82-2.06-19.58,1.31-29.15,4.19-11.89,13-18.15,25.15-19.87a82.68,82.68,0,0,1,11.57-.62c83.31,0,166.63.2,249.95-.19,18.93-.09,29.16,5,37.82,26.86,1.56,3.93,2.66,8.05,4.13,12.56,1.68-.95,3.24-1.81,4.77-2.71,18.06-10.52,37.09-18.51,57.83-22,2.76-.45,5.53-.8,8.31-1.12,3.65-.42,5.9,1.5,7.39,4.6v8c-.89,3.64-1.81,7.27-2.67,10.92a176.65,176.65,0,0,1-16.63,43.26c-2.7,5.06-4.31,5.79-9.92,4.44-3-3.2-2.61-6.46-.76-10.2a216.08,216.08,0,0,0,9.86-21.79c3-8.29,5.1-16.93,7.69-25.78C1095.3,392.9,1015.7,461.51,998.68,532c1.59-1.53,2.6-2.48,3.58-3.46l99.85-99.82c5.05-5.05,8.09-5.82,11.18-2.85s2.37,6.25-2.83,11.45q-50.06,50.06-100.14,100.1a14.39,14.39,0,0,1-2.64,1.66l.77,1a19.22,19.22,0,0,0,3.76-.69c10-4,20.33-7.31,29.84-12.23,31.68-16.4,57.48-39.78,78.55-68.45,2.56-3.47,5.24-5.66,9.71-3.93,3.49,3.81,3.67,6,.67,10.18a263.79,263.79,0,0,1-33.34,37.65,8.26,8.26,0,0,0-2.33,5.39c-.11,32.79-.4,65.58.1,98.36.3,19.29,1.92,38.55,3,58.31h4.69q22.4,0,44.79,0c5.71,0,7.12,1.2,8.29,6.9,2,9.83,2.06,19.56-1.34,29.14-4.21,11.91-13,18.14-25.14,19.88a82.53,82.53,0,0,1-11.56.61c-83.7,0-167.41-.14-251.11.16-17.58.06-26.08-5.52-33.43-22.7-5-11.7-7.13-24.2-8.67-36.76-1-7.8-1.5-15.65-2.23-23.47-.48-5.12.52-6.8,5.33-8.89,4.43.52,6.22,3,6.68,7.46,1.33,12.84,2.77,25.68,4.65,38.45,1.3,8.83,3.79,17.44,8.52,25.15,7.21,11.73,25.75,11.12,32.45-1,4.34-7.83,3.7-16.23,2.43-24.55s.35-10.43,8.78-10.43h195.43c-5.62-50-3.25-99.64-3.84-149.24-8.39,5.6-16.25,11.32-24.55,16.3-19.78,11.87-40.71,20.77-63.87,23.66a9.09,9.09,0,0,0-4.72,2.51c-5.12,4.87-10,10-15.05,14.93-3.67,3.63-7,4.08-9.76,1.41s-2.46-6.06,1.18-9.75c4.59-4.65,9-9.54,13.93-13.77,3.89-3.32,3.92-7.37,4.27-12H889.46c-8.93,0-17.86,0-26.79,0-5.17,0-7.88-2.09-8-5.87s2.79-6.07,8.13-6.15c2,0,4,0,6,0q57.39,0,114.78,0c1.41,0,3.76-.43,4.08-1.26,2.35-6.23,4.31-12.62,6.46-19.2H864.64c-1.06,0-2.14,0-3.2,0-4.05-.29-6.69-2.64-6.76-6-.06-3.56,2.6-5.88,7-6,1.06,0,2.13,0,3.2,0q65.79,0,131.58,0c1.43,0,3.59-.32,4.16-1.25,3.77-6.18,7.2-12.58,11-19.34H863.68c-6,0-9-2.05-9-6.1s2.93-5.91,9.12-5.91q76.4,0,152.78.06c2.63,0,4.43-.6,6-2.83,2.29-3.26,4.88-6.33,7.47-9.37a256.85,256.85,0,0,1,43.8-40.77c1.11-.8,2.3-3,2-4a190.6,190.6,0,0,0-7.69-21.28c-3.52-7.69-9.88-11.07-18.63-11.05q-115.4.23-230.77.09H815c3.1,8,6.71,15.56,9,23.5,6.6,23,8.22,46.71,8.58,70.41.73,48,.67,96,1,144C833.61,614.26,832.06,616.9,828,617.76ZM1145.77,677H895.2c.91,11.25.35,22-6.48,32.26h5.42q111.76,0,223.54,0c3.2,0,6.4-.15,9.58-.4,8.6-.68,14.92-5.53,16.78-14C1145.3,689.08,1145.23,683.06,1145.77,677ZM814.11,404.77c-2.48-8.94-4.91-17.35-9.89-25-7.82-12-29.16-8.09-33.66,3.5a37,37,0,0,0-1.7,21.48Z"
                transform="translate(-755.96 -360.16)"
                style="fill: #040404"
              />
              <path
                d="M828,617.76c4.07-.86,5.62-3.5,5.6-7.51-.31-48-.25-96-1-144-.36-23.7-2-47.44-8.58-70.41-2.28-7.94-5.89-15.5-9-23.5h3.66q115.38,0,230.77-.09c8.75,0,15.11,3.36,18.63,11.05a190.6,190.6,0,0,1,7.69,21.28c.34,1.06-.85,3.23-2,4a256.85,256.85,0,0,0-43.8,40.77c-2.59,3-5.18,6.11-7.47,9.37-1.56,2.23-3.36,2.83-6,2.83q-76.38-.12-152.78-.06c-6.19,0-9.07,1.88-9.12,5.91s3,6.1,9,6.1h147.9c-3.79,6.76-7.22,13.16-11,19.34-.57.93-2.73,1.25-4.16,1.25q-65.79.09-131.58,0c-1.07,0-2.14,0-3.2,0-4.37.15-7,2.47-7,6,.07,3.32,2.71,5.67,6.76,6,1.06.07,2.14,0,3.2,0H994.15c-2.15,6.58-4.11,13-6.46,19.2-.32.83-2.67,1.25-4.08,1.26q-57.39.09-114.78,0c-2,0-4,0-6,0-5.34.08-8.22,2.28-8.13,6.15s2.8,5.84,8,5.87c8.93,0,17.86,0,26.79,0h95.07c-.35,4.61-.38,8.66-4.27,12-5,4.23-9.34,9.12-13.93,13.77-3.64,3.69-4,7-1.18,9.75s6.09,2.22,9.76-1.41c5-5,9.93-10.06,15.05-14.93a9.09,9.09,0,0,1,4.72-2.51c23.16-2.89,44.09-11.79,63.87-23.66,8.3-5,16.16-10.7,24.55-16.3.59,49.6-1.78,99.27,3.84,149.24H891.51c-8.43,0-10,2.17-8.78,10.43s1.91,16.72-2.43,24.55c-6.7,12.08-25.24,12.69-32.45,1-4.73-7.71-7.22-16.32-8.52-25.15-1.88-12.77-3.32-25.61-4.65-38.45-.46-4.41-2.25-6.94-6.68-7.46Q828,623.67,828,617.76Zm74.12-180.13q19.77,0,39.56,0c5,0,7.87-2.22,7.86-6s-2.88-6-7.88-6q-39.55,0-79.12,0c-5,0-7.86,2.28-7.85,6s2.82,5.95,7.87,6Q882.32,437.65,902.11,437.63Zm131.76,201.83c7.07,0,14.14.06,21.2,0,4.4,0,7.1-2.38,7.14-5.88s-2.68-6-7-6.09q-21.2-.15-42.4,0c-4.32,0-7,2.65-6.9,6.15s2.7,5.77,7.17,5.82C1020,639.51,1026.94,639.46,1033.87,639.46Z"
                transform="translate(-755.96 -360.16)"
                style="fill: #edebec"
              />
              <path
                d="M1130.31,454.81c-4.47-1.73-7.15.46-9.71,3.93-21.07,28.67-46.87,52.05-78.55,68.45-9.51,4.92-19.85,8.24-29.84,12.23a19.22,19.22,0,0,1-3.76.69l-.77-1a14.39,14.39,0,0,0,2.64-1.66q50.1-50,100.14-100.1c5.2-5.2,6-8.41,2.83-11.45s-6.13-2.2-11.18,2.85l-99.85,99.82c-1,1-2,1.93-3.58,3.46,17-70.5,96.62-139.11,154.49-144.76-2.59,8.85-4.66,17.49-7.69,25.78a216.08,216.08,0,0,1-9.86,21.79c-1.85,3.74-2.22,7,.76,10.2Z"
                transform="translate(-755.96 -360.16)"
                style="fill: #efc12b"
              />
              <path
                d="M1145.77,677c-.54,6.1-.47,12.12-1.73,17.85-1.86,8.47-8.18,13.32-16.78,14-3.18.25-6.38.4-9.58.4q-111.76,0-223.54,0h-5.42c6.83-10.25,7.39-21,6.48-32.26Z"
                transform="translate(-755.96 -360.16)"
                style="fill: #cfcfcf"
              />
              <path
                d="M814.11,404.77H768.86a37,37,0,0,1,1.7-21.48c4.5-11.59,25.84-15.49,33.66-3.5C809.2,387.42,811.63,395.83,814.11,404.77Z"
                transform="translate(-755.96 -360.16)"
                style="fill: #d0d0d0"
              />
              <path
                d="M902.11,437.63q-19.79,0-39.56,0c-5,0-7.86-2.18-7.87-6s2.88-6,7.85-6q39.56,0,79.12,0c5,0,7.88,2.25,7.88,6s-2.85,6-7.86,6Q921.89,437.65,902.11,437.63Z"
                transform="translate(-755.96 -360.16)"
                style="fill: #020202"
              />
              <path
                d="M1033.87,639.46c-6.93,0-13.86,0-20.8,0-4.47-.05-7.08-2.26-7.17-5.82s2.58-6.12,6.9-6.15q21.2-.16,42.4,0c4.33,0,7,2.61,7,6.09s-2.74,5.83-7.14,5.88C1048,639.52,1040.94,639.46,1033.87,639.46Z"
                transform="translate(-755.96 -360.16)"
                style="fill: #060606"
              />
            </svg>